<svg width="16" height="12" viewBox="0 0 16 12" fill="none" xmlns="http://www.w3.org/2000/svg">
<path fill-rule="evenodd" clip-rule="evenodd" d="M1.16667 0C0.522335 0 0 0.522334 0 1.16667V10.5C0 11.1443 0.522334 11.6667 1.16667 11.6667H14.8333C15.4777 11.6667 16 11.1443 16 10.5V1.16667C16 0.522335 15.4777 0 14.8333 0H1.16667ZM1 1.16667C1 1.07462 1.07462 1 1.16667 1H14.8333C14.9254 1 15 1.07462 15 1.16667V1.73438L8.09329 6.40107C8.03692 6.43917 7.96305 6.43917 7.90667 6.40107L1 1.7344V1.16667ZM1 2.94127V10.5C1 10.592 1.07462 10.6667 1.16667 10.6667H14.8333C14.9254 10.6667 15 10.592 15 10.5V2.94125L8.65315 7.22966C8.25852 7.4963 7.74144 7.4963 7.34681 7.22966L1 2.94127Z" fill="#24292E" fill-opacity="0.21"/>
</svg>
