<svg width="16" height="16" viewBox="0 0 16 16" fill="none" xmlns="http://www.w3.org/2000/svg">
<path d="M11.1667 5.66667C11.6269 5.66667 12 5.29357 12 4.83333C12 4.3731 11.6269 4 11.1667 4C10.7064 4 10.3333 4.3731 10.3333 4.83333C10.3333 5.29357 10.7064 5.66667 11.1667 5.66667Z" fill="#24292E" fill-opacity="0.21"/>
<path fill-rule="evenodd" clip-rule="evenodd" d="M10.5 0C7.46243 0 5 2.46243 5 5.5C5 6.09031 5.09317 6.65969 5.26588 7.19375L0.341709 12.1179C0.122916 12.3367 0 12.6335 0 12.9429V14.8334C0 15.4777 0.522335 16.0001 1.16667 16.0001H2.16667C2.811 16.0001 3.33333 15.4777 3.33333 14.8334V14.1666C3.33333 14.0745 3.40795 13.9999 3.5 13.9999H5.32352C5.45704 14.0025 5.58896 13.9516 5.68697 13.8535L5.82914 13.7114C5.93854 13.602 6 13.4536 6 13.2989V12.3332C6 12.2412 6.07462 12.1666 6.16667 12.1666H6.89069C7.20011 12.1666 7.49685 12.0437 7.71565 11.8249L8.80635 10.7342C9.34038 10.9068 9.90973 11 10.5 11C13.5376 11 16 8.53757 16 5.5C16 2.46243 13.5376 0 10.5 0ZM6 5.5C6 3.01472 8.01472 1 10.5 1C12.9853 1 15 3.01472 15 5.5C15 7.98528 12.9853 10 10.5 10C9.91993 10 9.36664 9.8905 8.85882 9.69149C8.67378 9.61898 8.46336 9.66294 8.32283 9.80347L7.00854 11.1178C6.97728 11.149 6.93489 11.1666 6.89069 11.1666H6.16667C5.52233 11.1666 5 11.6889 5 12.3332V12.9999H3.5C2.85567 12.9999 2.33333 13.5222 2.33333 14.1666V14.8334C2.33333 14.9255 2.25871 15.0001 2.16667 15.0001H1.16667C1.07462 15.0001 1 14.9255 1 14.8334V12.9429C1 12.8987 1.01756 12.8563 1.04882 12.825L6.19657 7.67727C6.33711 7.53674 6.38107 7.32631 6.30855 7.14127C6.10952 6.63343 6 6.0801 6 5.5Z" fill="#24292E" fill-opacity="0.21"/>
</svg>
