<svg width="15" height="16" viewBox="0 0 15 16" fill="none" xmlns="http://www.w3.org/2000/svg">
<path fill-rule="evenodd" clip-rule="evenodd" d="M7.50008 0C4.96775 0 2.91492 2.05288 2.91492 4.58522C2.91492 6.16043 3.70921 7.55011 4.91913 8.37559C2.11418 9.40309 0.0936941 12.0574 0.000282192 15.196C-0.00999083 15.5412 0.261495 15.8293 0.606662 15.8396C0.95183 15.8499 1.23997 15.5784 1.25024 15.2332C1.3504 11.868 4.11029 9.17045 7.5 9.17045C10.8897 9.17045 13.6496 11.868 13.7498 15.2332C13.76 15.5784 14.0482 15.8499 14.3933 15.8396C14.7385 15.8293 15.01 15.5412 14.9997 15.196C14.9063 12.0575 12.8859 9.40315 10.081 8.37563C11.2909 7.55015 12.0852 6.16045 12.0852 4.58522C12.0852 2.05288 10.0324 0 7.50008 0ZM4.16543 4.58522C4.16543 2.74351 5.65841 1.25052 7.50008 1.25052C9.34174 1.25052 10.8347 2.74351 10.8347 4.58522C10.8347 6.42694 9.34174 7.91993 7.50008 7.91993C5.65841 7.91993 4.16543 6.42694 4.16543 4.58522Z" fill="#24292E" fill-opacity="0.21"/>
</svg>
